SolveFromPy_states
version=1
nRows=4
nColumns=195
inDegrees=yes

# SIMM Motion File Header:
name SolveFromPy_states
datacolumns 195
datarows 4
otherdata 1
range 0.30682858 0.30729486
endheader
time	/jointset/ground_platform/platform_rx/value	/jointset/ground_platform/platform_rx/speed	/jointset/ground_platform/platform_ry/value	/jointset/ground_platform/platform_ry/speed	/jointset/ground_platform/platform_rz/value	/jointset/ground_platform/platform_rz/speed	/jointset/ground_platform/platform_ty/value	/jointset/ground_platform/platform_ty/speed	/jointset/ground_pelvis/pelvis_tilt/value	/jointset/ground_pelvis/pelvis_tilt/speed	/jointset/ground_pelvis/pelvis_list/value	/jointset/ground_pelvis/pelvis_list/speed	/jointset/ground_pelvis/pelvis_rotation/value	/jointset/ground_pelvis/pelvis_rotation/speed	/jointset/ground_pelvis/pelvis_tx/value	/jointset/ground_pelvis/pelvis_tx/speed	/jointset/ground_pelvis/pelvis_ty/value	/jointset/ground_pelvis/pelvis_ty/speed	/jointset/ground_pelvis/pelvis_tz/value	/jointset/ground_pelvis/pelvis_tz/speed	/jointset/hip_r/hip_flexion_r/value	/jointset/hip_r/hip_flexion_r/speed	/jointset/hip_r/hip_adduction_r/value	/jointset/hip_r/hip_adduction_r/speed	/jointset/hip_r/hip_rotation_r/value	/jointset/hip_r/hip_rotation_r/speed	/jointset/knee_r/knee_angle_r/value	/jointset/knee_r/knee_angle_r/speed	/jointset/ankle_r/ankle_angle_r/value	/jointset/ankle_r/ankle_angle_r/speed	/jointset/subtalar_r/subtalar_angle_r/value	/jointset/subtalar_r/subtalar_angle_r/speed	/jointset/mtp_r/mtp_angle_r/value	/jointset/mtp_r/mtp_angle_r/speed	/jointset/hip_l/hip_flexion_l/value	/jointset/hip_l/hip_flexion_l/speed	/jointset/hip_l/hip_adduction_l/value	/jointset/hip_l/hip_adduction_l/speed	/jointset/hip_l/hip_rotation_l/value	/jointset/hip_l/hip_rotation_l/speed	/jointset/knee_l/knee_angle_l/value	/jointset/knee_l/knee_angle_l/speed	/jointset/ankle_l/ankle_angle_l/value	/jointset/ankle_l/ankle_angle_l/speed	/jointset/subtalar_l/subtalar_angle_l/value	/jointset/subtalar_l/subtalar_angle_l/speed	/jointset/mtp_l/mtp_angle_l/value	/jointset/mtp_l/mtp_angle_l/speed	/jointset/back/lumbar_extension/value	/jointset/back/lumbar_extension/speed	/jointset/back/lumbar_bending/value	/jointset/back/lumbar_bending/speed	/jointset/back/lumbar_rotation/value	/jointset/back/lumbar_rotation/speed	/forceset/glut_med1_r/activation	/forceset/glut_med1_r/fiber_length	/forceset/glut_med2_r/activation	/forceset/glut_med2_r/fiber_length	/forceset/glut_med3_r/activation	/forceset/glut_med3_r/fiber_length	/forceset/bifemlh_r/activation	/forceset/bifemlh_r/fiber_length	/forceset/bifemsh_r/activation	/forceset/bifemsh_r/fiber_length	/forceset/sar_r/activation	/forceset/sar_r/fiber_length	/forceset/add_mag2_r/activation	/forceset/add_mag2_r/fiber_length	/forceset/tfl_r/activation	/forceset/tfl_r/fiber_length	/forceset/pect_r/activation	/forceset/pect_r/fiber_length	/forceset/grac_r/activation	/forceset/grac_r/fiber_length	/forceset/glut_max1_r/activation	/forceset/glut_max1_r/fiber_length	/forceset/glut_max2_r/activation	/forceset/glut_max2_r/fiber_length	/forceset/glut_max3_r/activation	/forceset/glut_max3_r/fiber_length	/forceset/iliacus_r/activation	/forceset/iliacus_r/fiber_length	/forceset/psoas_r/activation	/forceset/psoas_r/fiber_length	/forceset/quad_fem_r/activation	/forceset/quad_fem_r/fiber_length	/forceset/gem_r/activation	/forceset/gem_r/fiber_length	/forceset/peri_r/activation	/forceset/peri_r/fiber_length	/forceset/rect_fem_r/activation	/forceset/rect_fem_r/fiber_length	/forceset/vas_int_r/activation	/forceset/vas_int_r/fiber_length	/forceset/med_gas_r/activation	/forceset/med_gas_r/fiber_length	/forceset/lat_gas_r/activation	/forceset/lat_gas_r/fiber_length	/forceset/soleus_r/activation	/forceset/soleus_r/fiber_length	/forceset/tib_post_r/activation	/forceset/tib_post_r/fiber_length	/forceset/flex_dig_r/activation	/forceset/flex_dig_r/fiber_length	/forceset/flex_hal_r/activation	/forceset/flex_hal_r/fiber_length	/forceset/tib_ant_r/activation	/forceset/tib_ant_r/fiber_length	/forceset/per_brev_r/activation	/forceset/per_brev_r/fiber_length	/forceset/per_long_r/activation	/forceset/per_long_r/fiber_length	/forceset/per_tert_r/activation	/forceset/per_tert_r/fiber_length	/forceset/ext_dig_r/activation	/forceset/ext_dig_r/fiber_length	/forceset/ext_hal_r/activation	/forceset/ext_hal_r/fiber_length	/forceset/glut_med1_l/activation	/forceset/glut_med1_l/fiber_length	/forceset/glut_med2_l/activation	/forceset/glut_med2_l/fiber_length	/forceset/glut_med3_l/activation	/forceset/glut_med3_l/fiber_length	/forceset/bifemlh_l/activation	/forceset/bifemlh_l/fiber_length	/forceset/bifemsh_l/activation	/forceset/bifemsh_l/fiber_length	/forceset/sar_l/activation	/forceset/sar_l/fiber_length	/forceset/add_mag2_l/activation	/forceset/add_mag2_l/fiber_length	/forceset/tfl_l/activation	/forceset/tfl_l/fiber_length	/forceset/pect_l/activation	/forceset/pect_l/fiber_length	/forceset/grac_l/activation	/forceset/grac_l/fiber_length	/forceset/glut_max1_l/activation	/forceset/glut_max1_l/fiber_length	/forceset/glut_max2_l/activation	/forceset/glut_max2_l/fiber_length	/forceset/glut_max3_l/activation	/forceset/glut_max3_l/fiber_length	/forceset/iliacus_l/activation	/forceset/iliacus_l/fiber_length	/forceset/psoas_l/activation	/forceset/psoas_l/fiber_length	/forceset/quad_fem_l/activation	/forceset/quad_fem_l/fiber_length	/forceset/gem_l/activation	/forceset/gem_l/fiber_length	/forceset/peri_l/activation	/forceset/peri_l/fiber_length	/forceset/rect_fem_l/activation	/forceset/rect_fem_l/fiber_length	/forceset/vas_int_l/activation	/forceset/vas_int_l/fiber_length	/forceset/med_gas_l/activation	/forceset/med_gas_l/fiber_length	/forceset/lat_gas_l/activation	/forceset/lat_gas_l/fiber_length	/forceset/soleus_l/activation	/forceset/soleus_l/fiber_length	/forceset/tib_post_l/activation	/forceset/tib_post_l/fiber_length	/forceset/flex_dig_l/activation	/forceset/flex_dig_l/fiber_length	/forceset/flex_hal_l/activation	/forceset/flex_hal_l/fiber_length	/forceset/tib_ant_l/activation	/forceset/tib_ant_l/fiber_length	/forceset/per_brev_l/activation	/forceset/per_brev_l/fiber_length	/forceset/per_long_l/activation	/forceset/per_long_l/fiber_length	/forceset/per_tert_l/activation	/forceset/per_tert_l/fiber_length	/forceset/ext_dig_l/activation	/forceset/ext_dig_l/fiber_length	/forceset/ext_hal_l/activation	/forceset/ext_hal_l/fiber_length	/forceset/ercspn_r/activation	/forceset/ercspn_r/fiber_length	/forceset/ercspn_l/activation	/forceset/ercspn_l/fiber_length	/forceset/intobl_r/activation	/forceset/intobl_r/fiber_length	/forceset/intobl_l/activation	/forceset/intobl_l/fiber_length	/forceset/extobl_r/activation	/forceset/extobl_r/fiber_length	/forceset/extobl_l/activation	/forceset/extobl_l/fiber_length
      0.30682858	     20.00000000	     -0.00000000	     -0.00000000	      0.00000000	     -0.00000000	      0.00000000	      0.25000000	      0.00000000	     -7.45627039	      1.49402790	      0.59347890	     36.20372508	      1.63450175	     12.99228631	      0.05389915	      0.00003440	      1.21613654	     -3.14553307	     -0.00138372	      0.03805842	      9.25949689	     98.65641118	     -1.93605699	    -21.25774107	     -1.75002225	     59.56823997	    -11.72387022	   -214.02765739	     56.86957419	   2889.38084729	      8.14989190	     -2.32132824	     -0.00000000	      0.00000000	    -19.99999998	      0.00000000	     10.00000028	      0.00000000	      4.99999985	     -0.00000000	   -119.99999986	     -0.00000000	     11.49999977	     -0.00000000	     -0.03000064	     -0.00000000	      0.00000000	      0.00000000	     -5.05294663	     -0.36269201	     -1.01849619	    -49.05125004	     -0.12898930	    -10.33249486	     -0.01406213	      0.04521920	     -0.01406213	      0.08009517	     -0.01406213	      0.06198620	     -0.01406213	      0.09738098	     -0.01406213	      0.16656950	     -0.01406213	      0.45955414	     -0.01406213	      0.07726063	     -0.01406213	      0.10373067	     -0.01406213	      0.06815448	     -0.01406213	      0.31240459	     -0.01406213	      0.08128254	     -0.01406213	      0.08985841	     -0.01406213	      0.10284167	     -0.01406213	      0.10129638	     -0.01406213	      0.09559562	     -0.01406213	      0.04532843	     -0.01406213	      0.02431706	     -0.01406213	      0.02131893	     -0.01406213	      0.10172131	     -0.01406213	      0.07519001	     -0.01406213	      0.11825918	     -0.01406213	      0.09028538	     -0.01406213	      0.10550161	     -0.01406213	      0.03830664	     -0.01406213	      0.03591580	     -0.01406213	      0.04748020	     -0.01406213	      0.07588098	     -0.01406213	      0.05491660	     -0.01406213	      0.05760702	     -0.01406213	      0.07440504	     -0.01406213	      0.09200381	     -0.01406213	      0.09874366	     -0.01406213	      0.04646954	     -0.01406213	      0.07924345	     -0.01406213	      0.06066849	     -0.01406213	      0.02207317	     -0.01406213	      0.12238178	     -0.01406213	      0.45556126	     -0.01406213	      0.05828642	     -0.01406213	      0.13391495	     -0.01406213	      0.07307389	     -0.01406213	      0.24301553	     -0.01406213	      0.06638073	     -0.01406213	      0.06554424	     -0.01406213	      0.05770037	     -0.01406213	      0.11895704	     -0.01406213	      0.11276383	     -0.01406213	      0.04385542	     -0.01406213	      0.02477863	     -0.01406213	      0.02332626	     -0.01406213	      0.18252185	     -0.01406213	      0.13945923	     -0.01406213	      0.06773750	     -0.01406213	      0.04190274	     -0.01406213	      0.08593352	     -0.01406213	      0.03561972	     -0.01406213	      0.03422102	     -0.01406213	      0.04261534	     -0.01406213	      0.07211219	     -0.01406213	      0.05030459	     -0.01406213	      0.05155930	     -0.01406213	      0.07464108	     -0.01406213	      0.08888351	     -0.01406213	      0.09641126	     -0.01406213	      0.12391100	     -0.01406213	      0.12258652	     -0.01406213	      0.09560918	     -0.01406213	      0.09268819	     -0.01406213	      0.12857939	     -0.01406213	      0.12660995
      0.30698401	     20.00000000	     -0.00000000	     -0.00000000	      0.00000000	     -0.00000000	      0.00000000	      0.25000000	      0.00000000	     -7.45603917	      1.48126571	      0.59910534	     36.19632785	      1.63651941	     12.97035333	      0.05389915	     -0.00007235	      1.21564751	     -3.14724895	     -0.00137781	      0.03808262	      9.27485332	     98.94991817	     -1.93936153	    -21.26474177	     -1.74076085	     59.60747012	    -11.75697954	   -212.01698806	     57.31952871	   2900.60679560	      8.14939453	     -4.07787460	     -0.00000000	      0.00000000	    -19.99999998	      0.00000000	     10.00000028	      0.00000000	      4.99999985	     -0.00000000	   -119.99999986	     -0.00000000	     11.49999977	     -0.00000000	     -0.03000064	     -0.00000000	      0.00000000	      0.00000000	     -5.05300285	     -0.36070458	     -1.02611879	    -49.03504438	     -0.13059326	    -10.30680672	     -0.01408214	      0.04521604	     -0.01408214	      0.08009861	     -0.01408214	      0.06199391	     -0.01408214	      0.09737529	     -0.01408214	      0.16655447	     -0.01408214	      0.45953661	     -0.01408214	      0.07727135	     -0.01408214	      0.10372672	     -0.01408214	      0.06815036	     -0.01408214	      0.31239482	     -0.01408214	      0.08129466	     -0.01408214	      0.08987452	     -0.01408214	      0.10286682	     -0.01408214	      0.10128577	     -0.01408214	      0.09558520	     -0.01408214	      0.04533834	     -0.01408214	      0.02432244	     -0.01408214	      0.02132414	     -0.01408214	      0.10173764	     -0.01408214	      0.07521610	     -0.01408214	      0.11837544	     -0.01408214	      0.09030858	     -0.01408214	      0.10559076	     -0.01408214	      0.03833530	     -0.01408214	      0.03593737	     -0.01408214	      0.04752416	     -0.01408214	      0.07584176	     -0.01408214	      0.05491648	     -0.01408214	      0.05762125	     -0.01408214	      0.07437342	     -0.01408214	      0.09196299	     -0.01408214	      0.09869923	     -0.01408214	      0.04646954	     -0.01408214	      0.07924345	     -0.01408214	      0.06066849	     -0.01408214	      0.02207317	     -0.01408214	      0.12238178	     -0.01408214	      0.45556126	     -0.01408214	      0.05828642	     -0.01408214	      0.13391495	     -0.01408214	      0.07307389	     -0.01408214	      0.24301553	     -0.01408214	      0.06638073	     -0.01408214	      0.06554424	     -0.01408214	      0.05770037	     -0.01408214	      0.11895704	     -0.01408214	      0.11276383	     -0.01408214	      0.04385542	     -0.01408214	      0.02477863	     -0.01408214	      0.02332627	     -0.01408214	      0.18252185	     -0.01408214	      0.13945923	     -0.01408214	      0.06773750	     -0.01408214	      0.04190275	     -0.01408214	      0.08593352	     -0.01408214	      0.03561972	     -0.01408214	      0.03422105	     -0.01408214	      0.04261538	     -0.01408214	      0.07211219	     -0.01408214	      0.05030459	     -0.01408214	      0.05155930	     -0.01408214	      0.07464108	     -0.01408214	      0.08888351	     -0.01408214	      0.09641126	     -0.01408214	      0.12391622	     -0.01408214	      0.12258122	     -0.01408214	      0.09562073	     -0.01408214	      0.09267641	     -0.01408214	      0.12858786	     -0.01408214	      0.12660120
      0.30713944	     20.00000000	     -0.00000000	     -0.00000000	      0.00000000	     -0.00000000	      0.00000000	      0.25000000	      0.00000000	     -7.45580985	      1.46972951	      0.60473034	     36.18405512	      1.63853345	     12.94508176	      0.05389913	     -0.00018505	      1.21515821	     -3.14894904	     -0.00137189	      0.03810508	      9.29025581	     99.24809869	     -1.94266711	    -21.27063179	     -1.73149362	     59.63998536	    -11.78977509	   -209.98995772	     57.77123431	   2911.84879809	      8.14862578	     -5.80842770	     -0.00000000	      0.00000000	    -19.99999998	      0.00000000	     10.00000028	      0.00000000	      4.99999985	     -0.00000000	   -119.99999986	     -0.00000000	     11.49999977	     -0.00000000	     -0.03000064	     -0.00000000	      0.00000000	      0.00000000	     -5.05305889	     -0.36090980	     -1.03373848	    -49.01239292	     -0.13219298	    -10.27704142	     -0.01410215	      0.04521287	     -0.01410215	      0.08010207	     -0.01410215	      0.06200163	     -0.01410215	      0.09736973	     -0.01410215	      0.16653955	     -0.01410215	      0.45951904	     -0.01410215	      0.07728209	     -0.01410215	      0.10372267	     -0.01410215	      0.06814622	     -0.01410215	      0.31238518	     -0.01410215	      0.08130681	     -0.01410215	      0.08989067	     -0.01410215	      0.10289204	     -0.01410215	      0.10127513	     -0.01410215	      0.09557475	     -0.01410215	      0.04534827	     -0.01410215	      0.02432782	     -0.01410215	      0.02132936	     -0.01410215	      0.10175371	     -0.01410215	      0.07524195	     -0.01410215	      0.11849028	     -0.01410215	      0.09055154	     -0.01410215	      0.10571636	     -0.01410215	      0.03836370	     -0.01410215	      0.03595863	     -0.01410215	      0.04756776	     -0.01410215	      0.07580254	     -0.01410215	      0.05491615	     -0.01410215	      0.05763508	     -0.01410215	      0.07434180	     -0.01410215	      0.09192216	     -0.01410215	      0.09865481	     -0.01410215	      0.04646954	     -0.01410215	      0.07924345	     -0.01410215	      0.06066849	     -0.01410215	      0.02207317	     -0.01410215	      0.12238178	     -0.01410215	      0.45556126	     -0.01410215	      0.05828642	     -0.01410215	      0.13391495	     -0.01410215	      0.07307389	     -0.01410215	      0.24301553	     -0.01410215	      0.06638073	     -0.01410215	      0.06554424	     -0.01410215	      0.05770037	     -0.01410215	      0.11895704	     -0.01410215	      0.11276383	     -0.01410215	      0.04385542	     -0.01410215	      0.02477863	     -0.01410215	      0.02332627	     -0.01410215	      0.18252185	     -0.01410215	      0.13945923	     -0.01410215	      0.06773750	     -0.01410215	      0.04190275	     -0.01410215	      0.08593352	     -0.01410215	      0.03561972	     -0.01410215	      0.03422107	     -0.01410215	      0.04261541	     -0.01410215	      0.07211219	     -0.01410215	      0.05030459	     -0.01410215	      0.05155931	     -0.01410215	      0.07464108	     -0.01410215	      0.08888351	     -0.01410215	      0.09641126	     -0.01410215	      0.12392143	     -0.01410215	      0.12257593	     -0.01410215	      0.09563228	     -0.01410215	      0.09266462	     -0.01410215	      0.12859634	     -0.01410215	      0.12659245
      0.30729486	     20.00000000	     -0.00000000	     -0.00000000	      0.00000000	     -0.00000000	      0.00000000	      0.25000000	      0.00000000	     -7.45558225	      1.45893635	      0.61035315	     36.16918961	      1.64054342	     12.91847310	      0.05389909	     -0.00029951	      1.21466865	     -3.15064041	     -0.00136596	      0.03812550	      9.30570468	     99.54837216	     -1.94597357	    -21.27643970	     -1.72222158	     59.67270136	    -11.82225333	   -207.93559222	     58.22469483	   2923.24883745	      8.14758933	     -7.52710840	     -0.00000000	      0.00000000	    -19.99999998	      0.00000000	     10.00000028	      0.00000000	      4.99999985	     -0.00000000	   -119.99999986	     -0.00000000	     11.49999977	     -0.00000000	     -0.03000064	     -0.00000000	      0.00000000	      0.00000000	     -5.05311508	     -0.36221464	     -1.04135428	    -48.98622722	     -0.13378788	    -10.24552882	     -0.01412216	      0.04520969	     -0.01412216	      0.08010553	     -0.01412216	      0.06200937	     -0.01412216	      0.09736428	     -0.01412216	      0.16652475	     -0.01412216	      0.45950144	     -0.01412216	      0.07729286	     -0.01412216	      0.10371852	     -0.01412216	      0.06814206	     -0.01412216	      0.31237568	     -0.01412216	      0.08131899	     -0.01412216	      0.08990686	     -0.01412216	      0.10291731	     -0.01412216	      0.10126447	     -0.01412216	      0.09556427	     -0.01412216	      0.04535820	     -0.01412216	      0.02433320	     -0.01412216	      0.02133459	     -0.01412216	      0.10176952	     -0.01412216	      0.07526757	     -0.01412216	      0.11860365	     -0.01412216	      0.09057145	     -0.01412216	      0.10580292	     -0.01412216	      0.03839184	     -0.01412216	      0.03597958	     -0.01412216	      0.04761100	     -0.01412216	      0.07576332	     -0.01412216	      0.05491559	     -0.01412216	      0.05764853	     -0.01412216	      0.07431019	     -0.01412216	      0.09188134	     -0.01412216	      0.09861038	     -0.01412216	      0.04646954	     -0.01412216	      0.07924345	     -0.01412216	      0.06066849	     -0.01412216	      0.02207317	     -0.01412216	      0.12238178	     -0.01412216	      0.45556126	     -0.01412216	      0.05828642	     -0.01412216	      0.13391495	     -0.01412216	      0.07307389	     -0.01412216	      0.24301553	     -0.01412216	      0.06638073	     -0.01412216	      0.06554424	     -0.01412216	      0.05770037	     -0.01412216	      0.11895704	     -0.01412216	      0.11276383	     -0.01412216	      0.04385542	     -0.01412216	      0.02477863	     -0.01412216	      0.02332627	     -0.01412216	      0.18252185	     -0.01412216	      0.13945923	     -0.01412216	      0.06773750	     -0.01412216	      0.04190276	     -0.01412216	      0.08593352	     -0.01412216	      0.03561972	     -0.01412216	      0.03422110	     -0.01412216	      0.04261545	     -0.01412216	      0.07211219	     -0.01412216	      0.05030459	     -0.01412216	      0.05155931	     -0.01412216	      0.07464108	     -0.01412216	      0.08888351	     -0.01412216	      0.09641126	     -0.01412216	      0.12392664	     -0.01412216	      0.12257064	     -0.01412216	      0.09564383	     -0.01412216	      0.09265282	     -0.01412216	      0.12860482	     -0.01412216	      0.12658369
